<svg xmlns="http://www.w3.org/2000/svg" class="icon" width="48" height="48" viewBox="0 0 48 48" stroke-width="4" stroke="#88bb44" fill="none" stroke-linecap="round" stroke-linejoin="round">

<path d="m18  24 a20,20 0 0,0 -10,10
						a16,16 0 0,1 0,-20
						a20,20 0 0,0 10,10
			 M30 24 a20,20 0 0,0 10,-10
						a16,16 0 0,1 0,20
						a20,20 0 0,0 -10,-10"
 fill="#446644" stroke="#446644"/>
<path d="m24 18 a16,16 0 0,1 -10,-10
					  a16,16 0 0,1 20,0
					  a16,16 0 0,1 -10,10
			M24 30 a16,16 0 0,1 10,10
					 a16,16 0 0,1 -20,0
					 a16,16 0 0,1 10,-10"
 fill="#8a8" stroke="#8a8"/>

</svg>
